<svg width="318" height="264" viewBox="0 0 318 264" fill="none" xmlns="http://www.w3.org/2000/svg">
<path d="M23.0348 186.691C22.9586 186.615 22.8825 186.501 22.8825 186.387C22.7683 184.255 21.4741 163.206 8.6086 148.78C-2.31569 136.561 8.87504 145.278 13.7472 149.198C14.1278 149.503 14.6607 149.046 14.4324 148.627C11.0066 142.842 2.44228 127.54 5.41125 124.571C8.22796 121.754 14.0517 135.724 16.6401 142.499C16.8304 142.994 17.5536 142.804 17.5155 142.309C16.7542 135.153 15.6885 120.156 19.7232 120.689C23.7199 121.222 22.6161 141.015 21.8167 150.721C21.7787 151.254 22.5399 151.406 22.6922 150.873C24.4812 144.897 27.945 136.104 31.9797 138.426C37.9557 141.89 23.187 154.032 24.1005 167.203C24.976 180.106 25.2044 188.556 23.0348 186.691Z" fill="#F8F8F8"/>
<path d="M30.7993 188.668C30.8373 188.668 30.9134 188.478 30.8754 188.326C28.0587 170.474 46.9383 157.494 60.2225 151.1C63.1915 149.653 66.2366 148.207 68.7488 145.999C63.8386 146.342 58.9284 148.397 54.2085 149.958C53.5994 150.148 53.2569 149.539 53.7898 149.158C59.8038 144.971 76.5519 129.594 71.7558 125.14C69.5862 123.123 57.5581 139.148 54.7033 142.04C54.2465 142.497 53.5233 142.078 53.8278 141.546C57.558 135.303 58.8142 115.586 55.0078 115.814C53.4091 115.929 52.8001 125.14 51.9627 128.908C50.4021 135.95 47.4331 142.573 44.3499 149.044C44.0835 149.615 43.1319 149.501 43.2842 148.93C44.3499 144.629 44.7686 131.992 39.4397 132.905C35.5953 133.552 36.2043 141.013 36.1662 145.009C36.0901 152.089 35.5192 159.359 32.4741 165.64C30.3806 169.903 27.8303 189.011 30.7993 188.668Z" fill="#F8F8F8"/>
<path d="M26.499 190.644C26.5752 190.606 26.5752 190.53 26.6132 190.454C26.6894 189.007 27.5648 174.885 36.2053 165.217C43.5135 157.034 36.015 162.857 32.7415 165.522C32.475 165.75 32.1325 165.408 32.2847 165.141C34.5686 161.259 40.3542 150.981 38.3369 149.002C36.4337 147.099 32.5512 156.501 30.8003 161.03C30.6861 161.373 30.1912 161.259 30.2293 160.878C30.7241 156.082 31.4473 145.995 28.7448 146.338C26.0423 146.68 26.8036 160.003 27.3365 166.511C27.3745 166.854 26.8416 166.968 26.7655 166.626C25.5475 162.629 23.2636 156.691 20.5611 158.29C16.5644 160.612 26.461 168.757 25.852 177.588C25.2049 186.19 25.0526 191.862 26.499 190.644Z" fill="#DDDDDD"/>
<path d="M36.2432 230.347C40.6967 213.713 43.6276 190.342 43.6276 184.557H10.3979C10.3979 190.304 13.3289 213.713 17.7823 230.347C18.6197 233.392 21.3603 235.524 24.5577 235.524H29.5059C32.6652 235.524 35.4439 233.43 36.2432 230.347Z" fill="#DDDDDD"/>
<path d="M42.6752 195.592C42.9417 193.574 43.132 191.709 43.2842 190.11H10.7397C10.892 191.709 11.0823 193.574 11.3488 195.592H42.6752Z" fill="#F8F8F8"/>
<path d="M97.9078 103.8H69.6265V132.081H97.9078V103.8Z" fill="#F8F8F8"/>
<path d="M83.7863 129.345C77.5058 129.345 72.3672 124.245 72.3672 117.926C72.3672 111.645 77.4677 106.507 83.7863 106.507C90.0668 106.507 95.2054 111.607 95.2054 117.926C95.1674 124.245 90.0668 129.345 83.7863 129.345Z" fill="#EBEBEB"/>
<path d="M79.0664 106.542C79.2187 107.303 79.9038 107.912 80.7412 107.912H86.7933C87.6307 107.912 88.3159 107.341 88.4681 106.542H79.0664Z" fill="#E0E0E0"/>
<path d="M97.9078 132.077H69.6265V160.358H97.9078V132.077Z" fill="#F0F0F0"/>
<path d="M83.7863 157.586C77.5058 157.586 72.3672 152.486 72.3672 146.167C72.3672 139.887 77.4677 134.748 83.7863 134.748C90.0668 134.748 95.2054 139.849 95.2054 146.167C95.1674 152.486 90.0668 157.586 83.7863 157.586Z" fill="#FAFAFA"/>
<path d="M79.0664 134.785C79.2187 135.546 79.9038 136.155 80.7412 136.155H86.7933C87.6307 136.155 88.3159 135.584 88.4681 134.785H79.0664Z" fill="#E0E0E0"/>
<path d="M97.9078 160.322H69.6265V188.604H97.9078V160.322Z" fill="#F8F8F8"/>
<path d="M83.7863 185.867C77.5058 185.867 72.3672 180.766 72.3672 174.447C72.3672 168.167 77.4677 163.028 83.7863 163.028C90.0668 163.028 95.2054 168.129 95.2054 174.447C95.1674 180.766 90.0668 185.867 83.7863 185.867Z" fill="#EBEBEB"/>
<path d="M79.0664 163.065C79.2187 163.827 79.9038 164.436 80.7412 164.436H86.7933C87.6307 164.436 88.3159 163.865 88.4681 163.065H79.0664Z" fill="#E0E0E0"/>
<path d="M97.9078 188.603H69.6265V216.884H97.9078V188.603Z" fill="#F0F0F0"/>
<path d="M83.7863 214.149C77.5058 214.149 72.3672 209.048 72.3672 202.73C72.3672 196.449 77.4677 191.311 83.7863 191.311C90.0668 191.311 95.2054 196.411 95.2054 202.73C95.1674 209.048 90.0668 214.149 83.7863 214.149Z" fill="#FAFAFA"/>
<path d="M79.0664 191.311C79.2187 192.072 79.9038 192.681 80.7412 192.681H86.7933C87.6307 192.681 88.3159 192.11 88.4681 191.311H79.0664Z" fill="#E0E0E0"/>
<path d="M101.372 103.799H97.9077V216.886H101.372V103.799Z" fill="#DDDDDD"/>
<path d="M89.0012 52.9834H66.772V75.2126H89.0012V52.9834Z" fill="#F0F0F0"/>
<path d="M90.0672 52.9834H89.0015V75.2126H90.0672V52.9834Z" fill="#DDDDDD"/>
<path d="M87.0221 54.999H68.7896V73.2315H87.0221V54.999Z" fill="#DDDDDD"/>
<path d="M85.1951 56.79H70.5786V71.4065H85.1951V56.79Z" fill="#FAFAFA"/>
<path d="M108.223 66.6104H94.0249V90.1718H108.223V66.6104Z" fill="#F0F0F0"/>
<path d="M108.908 66.6113H108.223V90.1728H108.908V66.6113Z" fill="#DDDDDD"/>
<path d="M106.967 68.7441H95.3193V88.0424H106.967V68.7441Z" fill="#FAFAFA"/>
<path d="M105.824 70.6484H96.4604V86.1403H105.824V70.6484Z" fill="#F8F8F8"/>
<path d="M105.825 62.4971C111.333 62.4971 115.798 59.5319 115.798 55.874C115.798 52.2162 111.333 49.251 105.825 49.251C100.317 49.251 95.8525 52.2162 95.8525 55.874C95.8525 59.5319 100.317 62.4971 105.825 62.4971Z" fill="#E0E0E0"/>
<path d="M105.14 62.4971C110.648 62.4971 115.113 59.5319 115.113 55.874C115.113 52.2162 110.648 49.251 105.14 49.251C99.6324 49.251 95.1675 52.2162 95.1675 55.874C95.1675 59.5319 99.6324 62.4971 105.14 62.4971Z" fill="#EBEBEB"/>
<path d="M105.14 61.0555C109.45 61.0555 112.944 58.7378 112.944 55.8788C112.944 53.0198 109.45 50.7021 105.14 50.7021C100.831 50.7021 97.3374 53.0198 97.3374 55.8788C97.3374 58.7378 100.831 61.0555 105.14 61.0555Z" fill="#FAFAFA"/>
<path d="M266.332 223.552H246.729V223.719H266.332V223.552Z" fill="#EEEEEE"/>
<path d="M196.066 225.303H190.927V225.47H196.066V225.303Z" fill="#EEEEEE"/>
<path d="M246.082 217.538H234.739V217.705H246.082V217.538Z" fill="#EEEEEE"/>
<path d="M56.6384 218.624H31.0596V218.791H56.6384V218.624Z" fill="#EEEEEE"/>
<path d="M65.6218 218.624H61.8916V218.791H65.6218V218.624Z" fill="#EEEEEE"/>
<path d="M133.299 221.381H77.8398V221.548H133.299V221.381Z" fill="#EEEEEE"/>
<path d="M140.302 184.135H25.997C24.1319 184.135 22.6094 182.464 22.6094 180.418V4.17317C22.6094 2.1272 24.1319 0.457031 25.997 0.457031H140.302C142.168 0.457031 143.69 2.1272 143.69 4.17317V180.418C143.69 182.464 142.168 184.135 140.302 184.135ZM25.997 0.624084C24.2081 0.624084 22.7616 2.21071 22.7616 4.17317V180.418C22.7616 182.381 24.2081 183.968 25.997 183.968H140.302C142.091 183.968 143.538 182.381 143.538 180.418V4.17317C143.538 2.21071 142.091 0.624084 140.302 0.624084H25.997Z" fill="#756161"/>
<path d="M268.35 184.135H154.044C152.179 184.135 150.657 182.464 150.657 180.418V4.17317C150.657 2.1272 152.179 0.457031 154.044 0.457031H268.35C270.215 0.457031 271.737 2.1272 271.737 4.17317V180.418C271.699 182.464 270.215 184.135 268.35 184.135ZM154.044 0.624084C152.255 0.624084 150.809 2.21071 150.809 4.17317V180.418C150.809 182.381 152.255 183.968 154.044 183.968H268.35C270.139 183.968 271.585 182.381 271.585 180.418V4.17317C271.585 2.21071 270.139 0.624084 268.35 0.624084H154.044Z" fill="#756161"/>
<path d="M295.984 213.111H0V213.278H295.984V213.111Z" fill="#EEEEEE"/>
<path d="M167.755 263.999C231.136 263.999 282.517 261 282.517 257.3C282.517 253.6 231.136 250.601 167.755 250.601C104.373 250.601 52.9927 253.6 52.9927 257.3C52.9927 261 104.373 263.999 167.755 263.999Z" fill="#F0EDED"/>
<path d="M308.817 180.873C313.717 180.873 317.662 176.928 317.662 172.029C317.662 167.129 313.717 163.184 308.817 163.184C306.118 163.184 303.71 164.388 302.09 166.298C302.049 166.381 301.966 166.423 301.924 166.506C301.426 167.045 299.889 168.457 296.816 168.665V172.029V175.392C299.889 175.6 301.467 177.053 301.924 177.551C301.966 177.634 302.049 177.676 302.09 177.759C303.71 179.669 306.118 180.873 308.817 180.873Z" fill="#2864C8"/>
<path d="M296.816 138.685V204.295H267.416C267.665 201.346 269.077 199.851 269.576 199.353C269.659 199.312 269.7 199.229 269.783 199.187C270.738 198.357 271.527 197.36 272.067 196.239C272.607 195.076 272.898 193.83 272.898 192.46C272.898 187.56 268.953 183.615 264.053 183.615C259.153 183.615 255.208 187.601 255.208 192.46C255.208 195.159 256.412 197.568 258.322 199.187C258.405 199.229 258.447 199.27 258.53 199.353C259.07 199.81 260.44 201.346 260.689 204.295H231.206V138.685H296.816Z" fill="#2864C8"/>
<path d="M158.597 207.101C163.583 207.101 167.597 211.114 167.597 216.1C167.597 221.085 163.583 225.099 158.597 225.099C155.851 225.099 153.401 223.874 151.753 221.93C151.711 221.846 151.626 221.804 151.584 221.719C151.077 221.17 149.514 219.733 146.387 219.522V216.1V212.678C149.514 212.466 151.119 210.988 151.584 210.481C151.626 210.396 151.711 210.354 151.753 210.269C153.401 208.326 155.851 207.101 158.597 207.101Z" fill="#2A4C84"/>
<path d="M146.387 250.024V183.27H116.474C116.728 186.269 118.164 187.79 118.671 188.297C118.756 188.34 118.798 188.424 118.883 188.466C119.854 189.311 120.657 190.325 121.206 191.466C121.756 192.649 122.051 193.917 122.051 195.311C122.051 200.296 118.038 204.31 113.052 204.31C108.067 204.31 104.053 200.254 104.053 195.311C104.053 192.565 105.278 190.114 107.222 188.466C107.306 188.424 107.348 188.382 107.433 188.297C107.982 187.833 109.376 186.269 109.63 183.27H79.7169V250.024H146.387Z" fill="#2A4C84"/>
<path d="M43.1465 206.117L49.2231 228.289L38.0005 252.157H34.9348L42.5991 228.124L36.9056 211.92L43.1465 206.117Z" fill="#4C54BD"/>
<path d="M47.3066 189.314L47.7446 179.132C47.7446 179.132 53.7117 177.599 53.3285 182.361C52.9453 186.905 49.3869 185.865 49.3869 185.865L49.3322 188.767L47.3066 189.314Z" fill="#FFDA85"/>
<path d="M49.3337 181.918L49.1694 183.122C49.1694 183.122 48.403 182.137 47.8556 182.903C47.2534 183.779 47.8008 185.312 48.7315 185.202C48.7315 185.202 48.6767 185.586 48.5672 185.695C48.1293 186.024 47.0344 185.805 47.0344 185.805C47.0344 185.805 45.7205 179.454 46.5417 179.18C47.3081 178.907 55.1366 177.483 55.1366 177.483C55.1366 177.483 55.4103 179.071 53.33 180.111C51.8519 180.823 49.3337 181.918 49.3337 181.918Z" fill="#2E3373"/>
<path d="M50.811 180.765C50.811 180.765 50.7563 181.914 50.2088 182.352C49.6614 182.79 49.5519 183.119 49.5519 183.119H49.1687L48.6212 180.984L50.811 180.765Z" fill="#2E3373"/>
<path d="M7.8915 249.092L9.53385 249.968L25.9024 235.461L44.1323 209.676L37.0156 205.625L36.6871 206.118L21.5776 231.848L7.8915 249.092Z" fill="#4C54BD"/>
<path d="M37.0153 205.619L44.1321 209.67L54.3693 195.163H79.5518V193.137L47.3073 188.101L37.0153 205.619Z" fill="#2E3373"/>
<path d="M11.1213 252.155L6.96076 249.965L7.89141 249.089L9.53376 249.965L11.3403 251.607" fill="#2E3373"/>
<path d="M40.4648 252.151H34.9356L35.2641 251.056L40.4648 251.767V252.151Z" fill="#2E3373"/>
<path d="M78.2379 195.17L78.7306 188.765H79.5518V195.17" fill="#FFDA85"/>
<path opacity="0.2" d="M175.939 145.761C175.939 145.723 175.939 145.647 175.939 145.609L179.251 143.858C179.099 141.612 178.718 139.404 178.109 137.311L174.417 136.816C173.313 133.771 171.714 130.992 169.659 128.556L171.067 125.092C169.545 123.494 167.832 122.047 166.005 120.829L162.769 122.846C160.067 121.248 157.022 120.144 153.824 119.573L152.682 115.995C151.578 115.881 150.475 115.805 149.371 115.805C148.267 115.805 147.125 115.881 146.059 115.995L144.917 119.573C141.72 120.106 138.675 121.248 135.972 122.846L132.813 120.867C130.948 122.085 129.273 123.532 127.751 125.13L129.159 128.594C127.104 130.992 125.467 133.809 124.401 136.854L120.709 137.349C120.1 139.442 119.719 141.612 119.567 143.896L122.878 145.647C122.878 145.685 122.878 145.761 122.878 145.799C122.878 149.034 123.449 152.156 124.515 155.048L122.003 157.827C122.917 159.882 124.02 161.786 125.315 163.575L128.969 162.775C131.024 165.211 133.46 167.305 136.277 168.904L136.125 172.634C138.104 173.624 140.159 174.385 142.367 174.918L144.651 171.949C146.212 172.215 147.772 172.367 149.409 172.367C151.046 172.367 152.606 172.215 154.167 171.949L156.451 174.918C158.62 174.385 160.714 173.624 162.693 172.634L162.541 168.904C165.32 167.305 167.794 165.249 169.849 162.775L173.503 163.575C174.797 161.786 175.939 159.882 176.815 157.827L174.303 155.048C175.33 152.117 175.939 149.034 175.939 145.761ZM149.371 162.966C139.893 162.966 132.166 155.277 132.166 145.761C132.166 136.245 139.855 128.556 149.371 128.556C158.849 128.556 166.576 136.245 166.576 145.761C166.576 155.277 158.849 162.966 149.371 162.966Z" fill="#A3A3A3"/>
<g opacity="0.2">
<path d="M212.137 102.479C212.137 102.441 212.137 102.364 212.137 102.326L215.449 100.575C215.296 98.3296 214.916 96.1219 214.307 94.0284L210.615 93.5336C209.511 90.4885 207.912 87.7099 205.857 85.2738L207.265 81.81C205.742 80.2113 204.03 78.7649 202.202 77.5468L199.043 79.5262C196.341 77.9275 193.296 76.8236 190.098 76.2527L188.956 72.6747C187.852 72.5605 186.749 72.4844 185.645 72.4844C184.541 72.4844 183.399 72.5605 182.333 72.6747L181.191 76.2527C177.994 76.7856 174.949 77.9275 172.246 79.5262L169.087 77.5468C167.222 78.7649 165.547 80.2113 164.025 81.81L165.433 85.2738C163.377 87.6718 161.741 90.4885 160.675 93.5336L156.983 94.0284C156.374 96.1219 155.993 98.2916 155.841 100.575L159.152 102.326C159.152 102.364 159.152 102.441 159.152 102.479C159.152 105.714 159.723 108.835 160.789 111.728L158.277 114.507C159.19 116.562 160.294 118.465 161.588 120.254L165.243 119.455C167.298 121.891 169.734 123.985 172.551 125.583L172.284 129.314C174.264 130.303 176.319 131.064 178.527 131.597L180.811 128.628C182.371 128.895 183.932 129.047 185.569 129.047C187.205 129.047 188.766 128.895 190.327 128.628L192.61 131.597C194.78 131.064 196.874 130.303 198.853 129.314L198.701 125.583C201.479 123.985 203.953 121.929 206.009 119.455L209.663 120.254C210.957 118.465 212.099 116.562 212.974 114.507L210.462 111.728C211.528 108.835 212.137 105.714 212.137 102.479ZM185.569 119.645C176.091 119.645 168.364 111.956 168.364 102.441C168.364 92.9246 176.053 85.2357 185.569 85.2357C195.085 85.2357 202.773 92.9246 202.773 102.441C202.773 111.956 195.046 119.645 185.569 119.645Z" fill="#A3A3A3"/>
<path opacity="0.2" d="M185.569 80.3643C173.35 80.3643 163.454 90.2608 163.454 102.479C163.454 114.698 173.35 124.594 185.569 124.594C197.787 124.594 207.684 114.698 207.684 102.479C207.684 90.2608 197.787 80.3643 185.569 80.3643ZM185.569 119.646C176.091 119.646 168.364 111.957 168.364 102.441C168.364 92.9253 176.053 85.2364 185.569 85.2364C195.085 85.2364 202.773 92.9253 202.773 102.441C202.773 111.957 195.047 119.646 185.569 119.646Z" fill="black"/>
</g>
<path d="M193.638 250.135C184.541 250.135 177.195 242.789 177.195 233.692V217.248H210.082V233.692C210.082 242.751 202.736 250.135 193.638 250.135Z" fill="#9E9E9E"/>
<path opacity="0.4" d="M193.638 250.135C184.541 250.135 177.195 242.789 177.195 233.692V217.248H210.082V233.692C210.082 242.751 202.736 250.135 193.638 250.135Z" fill="black"/>
<path d="M193.638 246.897C181.8 246.897 172.208 237.305 172.208 225.467V204.037H215.068V225.467C215.068 237.305 205.476 246.897 193.638 246.897Z" fill="#9E9E9E"/>
<path d="M237.944 154.824C237.944 130.159 217.771 110.175 193.029 110.518C169.201 110.861 149.713 130.273 149.37 154.139C149.18 165.939 153.633 176.749 161.018 184.78C168.288 192.698 172.208 203.165 172.208 213.937H215.068C215.068 203.089 219.103 192.66 226.411 184.666C233.567 176.749 237.944 166.281 237.944 154.824Z" fill="#FFA018"/>
<path d="M214.954 178.04C214.383 177.773 213.659 178.002 213.393 178.611L211.87 181.77C211.185 182.303 210.158 182.569 209.358 182.303C209.967 180.704 209.967 179.029 209.815 177.811C209.739 177.24 209.625 176.555 209.206 176.022C208.787 175.49 207.95 175.071 207.227 175.413C206.465 175.756 206.161 176.708 206.389 178.04C206.542 178.801 206.732 179.6 206.96 180.324C207.227 181.161 207.569 182.075 208.369 182.646C208.292 182.798 208.178 182.95 208.102 183.14C207.074 184.701 205.247 185.576 203.649 185.234C202.849 185.082 202.126 184.625 201.403 183.902C201.555 183.635 201.669 183.331 201.745 183.026C202.088 181.808 202.012 180.476 201.936 179.334C201.86 178.002 201.745 176.479 201.06 175.185C200.566 174.272 199.614 173.472 198.548 173.701C197.863 173.853 197.292 174.462 197.102 175.261C196.949 175.946 197.026 176.631 197.178 177.24C197.52 178.687 198.091 180.133 199.005 181.846C199.386 182.531 199.842 183.293 200.451 184.016C200.109 184.511 199.652 184.967 199.005 185.158C197.711 185.576 196.34 184.777 195.617 183.787C194.78 182.607 194.551 181.123 194.437 179.905V179.867C194.437 179.829 194.437 179.791 194.437 179.715C194.437 179.486 194.247 179.334 194.057 179.334C193.828 179.334 193.676 179.524 193.676 179.715C193.676 179.791 193.676 179.829 193.676 179.867V179.905C193.562 181.123 193.333 182.646 192.496 183.787C191.773 184.777 190.364 185.576 189.108 185.158C188.499 184.967 188.004 184.511 187.662 184.016C188.271 183.293 188.728 182.531 189.108 181.846C190.022 180.133 190.631 178.687 190.935 177.24C191.088 176.631 191.164 175.946 191.012 175.261C190.821 174.462 190.25 173.853 189.565 173.701C188.499 173.472 187.548 174.272 187.053 175.185C186.368 176.479 186.254 178.002 186.177 179.334C186.101 180.476 186.025 181.808 186.368 183.026C186.444 183.331 186.558 183.635 186.71 183.902C186.025 184.625 185.264 185.044 184.465 185.234C182.866 185.576 181.039 184.701 180.011 183.14C179.897 182.988 179.821 182.836 179.745 182.646C180.506 182.075 180.887 181.161 181.153 180.324C181.381 179.562 181.572 178.801 181.724 178.04C181.952 176.746 181.648 175.794 180.887 175.413C180.163 175.071 179.326 175.49 178.907 176.022C178.489 176.555 178.374 177.24 178.298 177.811C178.146 179.029 178.146 180.704 178.755 182.303C177.918 182.569 176.928 182.265 176.243 181.77L174.72 178.611C174.454 178.04 173.731 177.773 173.16 178.04C172.589 178.306 172.322 179.029 172.589 179.6L181.115 197.414V215.418C181.115 216.065 181.648 216.598 182.295 216.598C182.942 216.598 183.475 216.065 183.475 215.418V197.148C183.475 196.957 183.437 196.805 183.361 196.653L176.814 182.912C177.537 183.178 178.336 183.255 179.098 182.988C179.174 183.178 179.288 183.331 179.402 183.521C180.43 185.082 182.143 186.033 183.817 186.033C184.122 186.033 184.388 185.995 184.693 185.957C185.683 185.729 186.52 185.234 187.167 184.549C187.624 185.158 188.233 185.615 188.918 185.843C190.555 186.376 192.306 185.386 193.181 184.168C193.638 183.559 193.904 182.874 194.095 182.151C194.285 182.836 194.59 183.521 195.008 184.168C195.884 185.386 197.635 186.376 199.271 185.843C199.957 185.615 200.566 185.158 201.022 184.549C201.707 185.196 202.545 185.729 203.496 185.957C203.763 186.033 204.067 186.033 204.372 186.033C206.047 186.033 207.76 185.082 208.787 183.521C208.901 183.331 209.016 183.178 209.092 182.988C209.853 183.255 210.652 183.178 211.376 182.912L204.829 196.653C204.753 196.805 204.714 196.996 204.714 197.148V215.418C204.714 216.065 205.247 216.598 205.894 216.598C206.542 216.598 207.074 216.065 207.074 215.418V197.414L215.601 179.6C215.791 179.029 215.525 178.344 214.954 178.04ZM178.983 177.888C179.06 177.393 179.136 176.86 179.44 176.479C179.63 176.251 179.935 176.061 180.239 176.061C180.316 176.061 180.43 176.06 180.506 176.099C181.115 176.365 180.963 177.507 180.887 177.849C180.734 178.573 180.582 179.334 180.354 180.057C180.163 180.704 179.897 181.427 179.364 181.884C178.831 180.476 178.869 178.991 178.983 177.888ZM187.205 183.255C187.129 183.102 187.091 182.95 187.053 182.798C186.748 181.694 186.825 180.514 186.901 179.372C186.977 178.116 187.053 176.708 187.7 175.528C188.004 174.957 188.575 174.424 189.146 174.424C189.223 174.424 189.299 174.424 189.337 174.462C189.793 174.576 190.098 175.033 190.212 175.451C190.326 175.984 190.25 176.555 190.136 177.088C189.832 178.459 189.261 179.867 188.385 181.504C188.004 182.151 187.624 182.76 187.205 183.255ZM200.946 182.798C200.908 182.95 200.87 183.102 200.794 183.255C200.413 182.76 200.033 182.151 199.652 181.466C198.738 179.829 198.206 178.42 197.901 177.05C197.787 176.555 197.673 175.984 197.825 175.413C197.939 174.995 198.244 174.538 198.7 174.424C198.777 174.424 198.853 174.386 198.891 174.386C199.462 174.386 200.033 174.919 200.337 175.49C200.946 176.631 201.06 178.078 201.136 179.334C201.175 180.514 201.251 181.694 200.946 182.798ZM208.673 181.884C208.178 181.427 207.912 180.704 207.683 180.057C207.455 179.334 207.265 178.611 207.151 177.849C207.074 177.507 206.922 176.365 207.531 176.099C207.607 176.06 207.683 176.061 207.798 176.061C208.102 176.061 208.407 176.251 208.597 176.479C208.901 176.86 208.978 177.393 209.054 177.888C209.168 178.991 209.168 180.476 208.673 181.884Z" fill="#FFA018"/>
<path opacity="0.4" d="M155.689 154.212C155.613 158.361 156.222 162.434 157.44 166.279C157.097 162.244 157.364 158.171 158.315 154.136C160.142 146.371 164.368 139.482 170.344 134.305C169.049 132.288 167.831 130.232 166.613 128.215C159.724 135.219 155.841 144.468 155.689 154.212Z" fill="white"/>
<path opacity="0.1" d="M193.029 110.518C189.566 110.556 186.216 111.013 182.98 111.812C202.241 116.608 216.515 134.041 216.515 154.786C216.515 166.281 212.137 176.711 204.981 184.59C197.673 192.583 193.638 203.051 193.638 213.861H215.068C215.068 203.013 219.103 192.583 226.411 184.59C233.567 176.711 237.945 166.243 237.945 154.786C237.945 130.121 217.771 110.175 193.029 110.518Z" fill="black"/>
<path d="M216.096 217.248H171.219C169.392 217.248 167.869 215.764 167.869 213.898C167.869 212.071 169.354 210.549 171.219 210.549H216.096C217.923 210.549 219.446 212.033 219.446 213.898C219.446 215.764 217.923 217.248 216.096 217.248Z" fill="#9E9E9E"/>
<path opacity="0.4" d="M216.096 217.248H171.219C169.392 217.248 167.869 215.764 167.869 213.898C167.869 212.071 169.354 210.549 171.219 210.549H216.096C217.923 210.549 219.446 212.033 219.446 213.898C219.446 215.764 217.923 217.248 216.096 217.248Z" fill="black"/>
<path d="M216.096 228.78H171.219C169.392 228.78 167.869 227.296 167.869 225.431C167.869 223.604 169.354 222.081 171.219 222.081H216.096C217.923 222.081 219.446 223.566 219.446 225.431C219.446 227.296 217.923 228.78 216.096 228.78Z" fill="#9E9E9E"/>
<path opacity="0.4" d="M216.096 228.78H171.219C169.392 228.78 167.869 227.296 167.869 225.431C167.869 223.604 169.354 222.081 171.219 222.081H216.096C217.923 222.081 219.446 223.566 219.446 225.431C219.446 227.296 217.923 228.78 216.096 228.78Z" fill="black"/>
<path d="M216.096 240.354H171.219C169.392 240.354 167.869 238.869 167.869 237.004C167.869 235.177 169.354 233.654 171.219 233.654H216.096C217.923 233.654 219.446 235.139 219.446 237.004C219.446 238.869 217.923 240.354 216.096 240.354Z" fill="#9E9E9E"/>
<path opacity="0.4" d="M216.096 240.354H171.219C169.392 240.354 167.869 238.869 167.869 237.004C167.869 235.177 169.354 233.654 171.219 233.654H216.096C217.923 233.654 219.446 235.139 219.446 237.004C219.446 238.869 217.923 240.354 216.096 240.354Z" fill="black"/>
<path d="M237.374 80.6344C238.025 80.6344 238.554 80.1061 238.554 79.4544C238.554 78.8027 238.025 78.2744 237.374 78.2744C236.722 78.2744 236.194 78.8027 236.194 79.4544C236.194 80.1061 236.722 80.6344 237.374 80.6344Z" fill="white"/>
<path d="M137.038 92.5825C137.291 92.5825 137.495 92.378 137.495 92.1257C137.495 91.8734 137.291 91.6689 137.038 91.6689C136.786 91.6689 136.582 91.8734 136.582 92.1257C136.582 92.378 136.786 92.5825 137.038 92.5825Z" fill="white"/>
<path d="M100.649 118.963C101.721 118.963 102.591 118.093 102.591 117.021C102.591 115.949 101.721 115.08 100.649 115.08C99.5771 115.08 98.708 115.949 98.708 117.021C98.708 118.093 99.5771 118.963 100.649 118.963Z" fill="white"/>
<path d="M34.9127 166.998C36.1951 166.998 37.2346 165.959 37.2346 164.676C37.2346 163.394 36.1951 162.354 34.9127 162.354C33.6304 162.354 32.5908 163.394 32.5908 164.676C32.5908 165.959 33.6304 166.998 34.9127 166.998Z" fill="white"/>
<path d="M142.595 82.6867C143.878 82.6867 144.917 81.6472 144.917 80.3649C144.917 79.0825 143.878 78.043 142.595 78.043C141.313 78.043 140.273 79.0825 140.273 80.3649C140.273 81.6472 141.313 82.6867 142.595 82.6867Z" fill="white"/>
<path d="M282.594 134.304C283.876 134.304 284.916 133.264 284.916 131.982C284.916 130.7 283.876 129.66 282.594 129.66C281.312 129.66 280.272 130.7 280.272 131.982C280.272 133.264 281.312 134.304 282.594 134.304Z" fill="white"/>
<path d="M315.481 195.511C316.679 195.511 317.65 194.54 317.65 193.342C317.65 192.143 316.679 191.172 315.481 191.172C314.282 191.172 313.311 192.143 313.311 193.342C313.311 194.54 314.282 195.511 315.481 195.511Z" fill="white"/>
<path d="M222.453 94.6379C223.273 94.6379 223.937 93.9733 223.937 93.1534C223.937 92.3336 223.273 91.6689 222.453 91.6689C221.633 91.6689 220.968 92.3336 220.968 93.1534C220.968 93.9733 221.633 94.6379 222.453 94.6379Z" fill="white"/>
<path d="M263.143 88.6201C263.562 90.6756 265.161 92.2362 267.178 92.6549C265.122 93.0736 263.562 94.6723 263.143 96.6896C262.724 94.6342 261.126 93.0736 259.108 92.6549C261.164 92.2742 262.763 90.6756 263.143 88.6201Z" fill="white"/>
<path d="M87.25 98.6738C87.5164 99.968 88.5441 100.996 89.8383 101.262C88.5441 101.529 87.5164 102.556 87.25 103.85C86.9835 102.556 85.9558 101.529 84.6616 101.262C85.9558 100.958 86.9835 99.968 87.25 98.6738Z" fill="white"/>
<path d="M119.148 105.031C119.414 106.325 120.442 107.353 121.736 107.62C120.442 107.886 119.414 108.914 119.148 110.208C118.881 108.914 117.854 107.886 116.56 107.62C117.854 107.353 118.881 106.325 119.148 105.031Z" fill="white"/>
<path d="M299.532 152.914C299.798 154.208 300.826 155.236 302.12 155.502C300.826 155.769 299.798 156.797 299.532 158.091C299.265 156.797 298.238 155.769 296.943 155.502C298.238 155.236 299.265 154.208 299.532 152.914Z" fill="white"/>
<path d="M56.7993 120.752C57.0657 122.046 58.0934 123.074 59.3876 123.34C58.0934 123.607 57.0657 124.634 56.7993 125.929C56.5328 124.634 55.5051 123.607 54.2109 123.34C55.5051 123.074 56.5328 122.046 56.7993 120.752Z" fill="white"/>
<path d="M207.968 49.5204C208.131 49.5881 208.621 50.9017 208.678 51.3984L209.162 53.0328L207.883 53.0629C207.883 53.0629 207.567 51.7511 207.556 51.7506C207.407 51.7449 207.27 51.6905 207.118 51.5516C206.955 51.4025 206.365 50.3595 206.665 50.0574C206.886 49.8347 207.376 49.5702 207.376 49.5702C207.376 49.5702 207.831 49.4641 207.968 49.5204Z" fill="#CFEDFC"/>
<path d="M195.94 55.7915C200.729 54.3352 208.774 59.7739 210.046 60.4847C211.477 61.283 210.829 63.4782 208.934 63.1012C208.33 62.9799 197.848 59.4052 197.339 59.0863" fill="#2A4C84"/>
<path d="M208.885 62.88C208.299 60.858 207.836 54.5364 207.5 53.1028C207.383 52.6029 207.021 52.6297 207.348 52.202C207.587 51.8896 208.058 51.6969 208.443 51.6005C208.613 51.558 208.875 51.5163 209.037 51.5783C209.279 51.6714 209.158 52.1603 209.274 52.3731C209.732 53.2089 212.056 61.7846 211.605 62.3771C211.378 62.6754 210.759 62.9558 210.431 63.1079C209.936 63.3353 209.02 63.3475 208.885 62.88Z" fill="#2A4C84"/>
<path d="M201.597 51.0497L201.565 50.6942L206.841 49.8416L213.375 49.0723L213.507 50.5651L206.94 50.9597L201.597 51.0497Z" fill="#2A4C84"/>
<path d="M206.95 49.8308C206.95 49.8308 206.93 50.246 207.586 50.2516C208.243 50.2576 208.061 49.6269 208.061 49.6269C208.061 49.6269 207.526 49.5722 206.95 49.8308Z" fill="#CFEDFC"/>
<path d="M198.151 56.9595C198.151 56.9595 198.277 58.4217 197.096 58.3037C195.839 58.1784 195.864 56.7313 195.864 56.7313L196.205 53.3174L198.493 53.5456L198.151 56.9595Z" fill="#CFEDFC"/>
<path d="M184.813 78.0009C184.813 78.0009 186.881 79.3199 188.886 79.3525C191.516 79.3952 191.048 74.6463 191.048 74.6463C191.048 74.6463 189.382 73.9306 188.683 74.5421C187.984 75.1535 184.813 78.0009 184.813 78.0009Z" fill="#5BCBF5"/>
<path d="M196.274 76.6411L189.128 75.9281C189.128 75.9281 186.024 57.1435 191.034 55.0319C191.935 54.6527 199.532 56.0204 199.912 58.8188C201.182 68.1745 196.274 76.6411 196.274 76.6411Z" fill="#E6E7E8"/>
<path d="M197.207 55.9698C197.207 55.9698 197.377 65.9427 193.251 70.9344C189.127 75.927 184.813 78.0007 184.813 78.0007C184.813 78.0007 188.258 74.6144 188.001 70.353C187.743 66.0907 187.916 55.3978 191.001 54.8838C193.891 54.4025 197.207 55.9698 197.207 55.9698Z" fill="#2A4C84"/>
<path d="M196.264 77.0224C196.264 77.0224 202.258 66.2385 200.021 58.4449C199.837 57.8026 199.499 56.9239 198.168 56.791C198.19 56.8151 203.587 59.7085 196.232 76.7636L196.264 77.0224Z" fill="#2A4C84"/>
<path d="M198.19 56.5674L197.632 57.3759L198.459 58.6022L198.765 57.3871L198.19 56.5674Z" fill="#EE2C3C"/>
<path d="M198.297 58.1092C197.898 62.3544 196.791 66.4233 195.08 70.1583C195.266 70.7798 195.437 71.413 195.59 72.0582C196.141 71.6541 196.686 71.2297 197.225 70.7858C198.359 66.5999 198.777 62.2873 198.486 58.0283C198.423 58.0556 198.359 58.0824 198.297 58.1092Z" fill="#EE2C3C"/>
<path d="M188.478 79.4474C188.925 80.3114 191.172 81.4156 192.141 81.5119C193.094 81.607 195.831 80.7854 196.165 80.0651C196.393 79.5751 196.636 76.0597 196.636 76.0597L188.786 75.2764C188.786 75.2764 187.795 78.1278 188.478 79.4474Z" fill="#2A4C84"/>
<path d="M197.633 57.3771L195.6 55.9768L195.985 55.0332L198.19 56.5685L197.633 57.3771Z" fill="white"/>
<path d="M198.765 57.3883L198.19 56.5686L198.261 55.8613L199.175 56.5802L198.765 57.3883Z" fill="white"/>
<path d="M201.194 50.2512C201.552 52.3396 201.985 54.2235 201.012 54.6545C200.24 54.9961 198.31 54.6945 198.31 54.6945C198.31 54.6945 196.767 54.4534 196.215 52.4097C195.663 50.3665 195.891 48.4683 197.458 48.046C198.815 47.6794 200.213 47.327 200.833 48.7887C200.928 49.0136 201.147 49.9732 201.194 50.2512Z" fill="#CFEDFC"/>
<path d="M201.51 48.4887C201.519 48.4725 201.528 48.4568 201.536 48.4405C201.658 48.201 201.811 47.7979 201.756 47.5178C201.744 47.6688 201.566 47.7768 201.447 47.8466C201.676 47.4861 201.655 47.1071 201.606 46.6992C201.508 47.1932 200.848 47.2238 200.479 47.0868C199.001 46.5352 197.881 46.8865 196.543 47.6228C195.643 48.119 195.135 49.2328 195.223 49.9131C195.362 50.9964 195.697 53.3711 196.191 53.9106C196.552 54.3044 196.86 53.0265 196.909 52.8224C197.015 52.3817 197.206 51.3937 197.858 51.5001C198.104 51.5402 198.008 52.1406 198.094 52.359C198.153 52.5095 198.765 52.3568 198.765 52.3568L198.143 49.8998C198.464 49.5347 198.881 49.2428 199.299 49.1289C199.92 48.9589 200.177 49.3176 200.822 49.133C201.179 49.0312 201.33 48.8108 201.51 48.4887Z" fill="#2A4C84"/>
<path d="M198.121 51.9707C198.175 52.3722 197.98 52.7292 197.685 52.7693C197.39 52.8088 197.106 52.5167 197.051 52.1161C196.997 51.715 197.193 51.3576 197.488 51.3181C197.783 51.278 198.067 51.5704 198.121 51.9707Z" fill="#CFEDFC"/>
<path d="M201.246 50.8076C201.246 50.8076 201.657 51.8449 201.972 52.1873C202.087 52.3115 201.315 52.3502 201.315 52.3502L201.246 50.8076Z" fill="#CFEDFC"/>
<path d="M180.762 85.429L168.06 82.5253L169.885 74.5547L182.587 77.4583L180.762 85.429Z" fill="#2A4C84"/>
<path d="M174.191 74.1973L173.479 77.3086L173.95 77.4163L174.518 74.9319L178.251 75.7851L177.682 78.2694L178.152 78.377L178.865 75.2659L174.191 74.1973Z" fill="#2A4C84"/>
<path d="M169.309 77.0664C169.486 77.4762 169.668 77.8844 169.837 78.297L169.813 78.2758C170.752 78.4721 171.687 78.6811 172.621 78.9005C173.555 79.1166 174.487 79.3461 175.414 79.5919C174.472 79.4102 173.533 79.2126 172.598 79.0012C171.662 78.7933 170.728 78.5751 169.797 78.344L169.779 78.3394L169.772 78.3229C169.612 77.9066 169.462 77.4857 169.309 77.0664Z" fill="#5BCBF5"/>
<path d="M182.012 79.9701C181.691 80.2811 181.374 80.5956 181.048 80.901L181.035 80.9132L181.016 80.9094C180.077 80.7129 179.141 80.5039 178.208 80.2844C177.274 80.0684 176.342 79.8386 175.415 79.5928C176.357 79.7744 177.296 79.9723 178.231 80.1837C179.167 80.3915 180.101 80.6099 181.032 80.8412L181 80.8496C181.333 80.5512 181.674 80.2624 182.012 79.9701Z" fill="#5BCBF5"/>
<path d="M176.837 80.3372L173.81 79.6453L173.993 78.8457L177.02 79.5382L176.837 80.3372Z" fill="white"/>
<path d="M174.853 80.2072L175.069 79.2617L175.869 79.4449L175.652 80.3905L174.853 80.2072Z" fill="white"/>
<path d="M177.235 74.8939C177.235 74.8939 177.267 74.5788 177.261 74.4873C177.252 74.3097 177.115 74.143 177.027 74.0498C177.02 74.0423 177.619 73.0413 177.619 73.0413L176.81 72.2871L176.121 73.5896C175.856 73.9318 175.519 74.468 175.409 74.7546C175.163 75.3921 175.632 75.4273 176.043 75.5221C176.275 75.5754 176.539 75.394 176.539 75.394C176.539 75.394 176.755 74.8235 176.735 74.7508C176.784 74.9296 177.235 74.8939 177.235 74.8939Z" fill="#CFEDFC"/>
<path d="M192.408 54.8128C186.748 54.2885 180.925 61.9622 180.123 63.1781C179.487 64.1415 180.189 66.2717 181.908 65.3909C182.457 65.1097 191.63 59.4185 192.573 58.8831" fill="#2A4C84"/>
<path d="M180.122 63.1785C179.062 63.8582 177.119 71.0338 176.452 72.3469C176.219 72.8046 175.874 72.6931 176.09 73.1858C176.248 73.5458 176.66 73.8441 177.011 74.0297C177.166 74.1115 177.41 74.2138 177.582 74.1922C177.84 74.1594 177.838 73.6557 178.003 73.4768C178.646 72.7738 182.942 64.9943 182.645 64.3127C182.495 63.9689 181.961 63.5488 181.679 63.3241C181.252 62.9855 180.533 62.9156 180.122 63.1785Z" fill="#2A4C84"/>
<path d="M182.123 114.073L185.838 93.1425L188.803 76.5332H196.161L200.52 113.825H198.555L192.518 84.6077L189.553 95.1612L184.266 113.825L182.123 114.073Z" fill="#2A4C84"/>
<path d="M202.929 114.224V113.797L200.836 113.327L198.531 113.455L198.616 114.224H202.929Z" fill="#2E3373"/>
<path d="M182.123 114.053H186.008V113.711L184.514 113.327L182.123 114.053Z" fill="#2E3373"/>
</svg>
